# xmcd CD database file
#
# Track frame offsets:
#	150
#	16478
#	35903
#	58415
#	75411
#	90940
#	119491
#	142752
#	161305
#	182289
#
# Disc length: 2768 seconds
#
# Revision: 0
# Processed by: cddbd v1.5PL3 Copyright (c) Steve Scherf et al.
# Submitted via: CDex 1.50beta10
#
DISCID=730ace0a
DTITLE=山口百恵 - DISC23 Original Karaoke
DYEAR=2003
DGENRE=JPop
TTITLE0=ありがとう　あなた
TTITLE1=陽炎
TTITLE2=歌い継がれてゆく歌のように
TTITLE3=I CAME FROM 横須賀
TTITLE4=あまりりす
TTITLE5=ラスト・ソング
TTITLE6=曼珠沙華
TTITLE7=おだやかな構図
TTITLE8=不死鳥伝説
TTITLE9=This is my trial(私の試練)
EXTD=YEAR: 2003
EXTT0=
EXTT1=
EXTT2=
EXTT3=
EXTT4=
EXTT5=
EXTT6=
EXTT7=
EXTT8=
EXTT9=
PLAYORDER=
